<svg width="700" height="577" viewBox="0 0 700 577" fill="none" xmlns="http://www.w3.org/2000/svg">
<path d="M694 356.5C694 311.391 685.102 266.724 667.815 225.048C650.527 183.373 625.188 145.506 593.245 113.609C561.301 81.7119 523.379 56.4099 481.643 39.1474C439.907 21.8849 395.175 13 350 13C304.825 13 260.093 21.8849 218.357 39.1474C176.621 56.4099 138.699 81.7119 106.755 113.609C74.8119 145.506 49.473 183.373 32.1854 225.048C14.8978 266.724 6 311.391 6 356.5L350 356.5H694Z" stroke="#C6A16E" stroke-opacity="0.3" stroke-width="3"/>
<rect opacity="0.3" x="1" y="346" width="2" height="12" transform="rotate(-90 1 346)" fill="#C6A16E"/>
<rect opacity="0.3" x="352" y="1" width="2" height="12" fill="#C6A16E"/>
<rect opacity="0.3" x="597.414" y="119.9" width="2" height="12" transform="rotate(-135 597.414 119.9)" fill="#C6A16E"/>
<rect opacity="0.3" x="94" y="111.414" width="2" height="12" transform="rotate(-45 94 111.414)" fill="#C6A16E"/>
<rect opacity="0.3" x="687" y="346" width="2" height="12" transform="rotate(-90 687 346)" fill="#C6A16E"/>
</svg>
