<svg width="600" height="537" viewBox="0 0 600 537" fill="none" xmlns="http://www.w3.org/2000/svg">
<path d="M600 300C600 220.435 568.393 144.129 512.132 87.868C455.871 31.6071 379.565 6.00699e-06 300 0C220.435 -6.00699e-06 144.129 31.607 87.868 87.8679C31.6071 144.129 1.2014e-05 220.435 0 300L300 300H600Z" fill="#E06C6C" fill-opacity="0.1"/>
<path d="M265.984 204.2H339.184V219.6H280.384L274.584 260.4C278.45 256.933 282.717 254.533 287.384 253.2C292.05 251.867 296.784 251.2 301.584 251.2C309.984 251.2 317.584 253.133 324.384 257C331.184 260.733 336.584 266.133 340.584 273.2C344.584 280.133 346.584 288.467 346.584 298.2C346.584 307.667 344.584 316.133 340.584 323.6C336.717 331.067 331.184 336.933 323.984 341.2C316.784 345.467 308.117 347.6 297.984 347.6C293.984 347.6 289.517 347.067 284.584 346C279.65 344.933 274.784 343.067 269.984 340.4C265.317 337.6 261.25 333.733 257.784 328.8C254.317 323.867 252.05 317.533 250.984 309.8H268.784C272.784 324.733 282.517 332.2 297.984 332.2C308.117 332.2 315.717 329.133 320.784 323C325.984 316.733 328.584 308.733 328.584 299C328.584 289.267 326.117 281.333 321.184 275.2C316.384 269.067 308.85 266 298.584 266C292.984 266 287.984 267.133 283.584 269.4C279.317 271.533 275.317 275.067 271.584 280H255.584L265.984 204.2Z" fill="#E06C6C" fill-opacity="0.1"/>
</svg>
